<svg xmlns="http://www.w3.org/2000/svg" width="166.938" height="217.193" viewBox="0 0 166.938 217.193">
  <g id="Group_4" data-name="Group 4" transform="translate(-359.225 -371.33)">
    <path id="Path_10" data-name="Path 10" d="M523.663,554.665H361.725c.274-4.4,5.752-11.571,9.687-12.647a8.3,8.3,0,0,1,2.144-.089q38.033,0,76.063,0c.718,0,1.438.023,2.154-.022,2.588-.16,4.272-1.785,4.34-4.155a4.3,4.3,0,0,0-4.026-4.495,18.47,18.47,0,0,0-2.366-.059q-36.093,0-72.185,0h-2.912c0-.781,0-1.464,0-2.146,0-21.691-.241-43.386.078-65.073.386-26.268,11.965-46.6,34.948-59.271,22.023-12.141,44.677-11.583,66.473,1.171,17.5,10.242,28.014,25.766,31.754,45.7a74.236,74.236,0,0,1,1.114,13.275q.16,34.152.007,68.3c-.012,3.21,1.1,5.174,4.074,6.545C518.58,544.238,522.045,548.627,523.663,554.665Zm-55.146-21.448a4.408,4.408,0,0,0-4.4,4.142,4.336,4.336,0,0,0,4.2,4.533,4.415,4.415,0,0,0,4.445-4.108A4.544,4.544,0,0,0,468.517,533.217Z" fill="#ffcb08" stroke="#1c1c20" stroke-linecap="round" stroke-linejoin="round" stroke-width="5" stroke-dasharray="620"/>
    <path id="Path_11" data-name="Path 11" d="M422.038,561.609c5.555,0,11.181,0,16.807,0,7.259,0,14.518.018,21.776-.032,1.774-.012,2.726.41,2.8,2.472a21.216,21.216,0,0,1-13.454,20.583,20.754,20.754,0,0,1-23.646-6.442A21.522,21.522,0,0,1,422.038,561.609Z" fill="#ffcb08" stroke="#1c1c20" stroke-linecap="round" stroke-linejoin="round" stroke-width="5" stroke-dasharray="200"/>
    <path id="Path_12" data-name="Path 12" d="M456.193,390.272H429.027c-.64-5.573.832-10.272,5.4-13.571a13.093,13.093,0,0,1,15.041-.792C454.86,378.99,456.574,383.981,456.193,390.272Z" fill="#ffcb08" stroke="#1c1c20" stroke-linecap="round" stroke-linejoin="round" stroke-width="5" stroke-dasharray="200"/>
  </g>
</svg>
